<svg width="450" height="49" viewBox="0 0 450 49" fill="none" xmlns="http://www.w3.org/2000/svg">
<path fill-rule="evenodd" clip-rule="evenodd" d="M15 9.01807V7.01807L9 7.01807V1.01807L7 1.01807L7 7.01807L1 7.01807V9.01807L7 9.01807V15.0181H9L9 9.01807H15Z" fill="#000716"/>
<path fill-rule="evenodd" clip-rule="evenodd" d="M25 8.0099L32.6407 0.368164L34.0436 1.77001L27.8037 8.0099L34.0436 14.2478L32.6407 15.6497L25 8.0099ZM29.9574 8.0099L37.5982 0.368164L39 1.77001L32.7611 8.0099L39 14.2478L37.5982 15.6497L29.9574 8.0099Z" fill="#000716"/>
<path fill-rule="evenodd" clip-rule="evenodd" d="M63 8.0099L55.3593 0.368164L53.9564 1.77001L60.1963 8.0099L53.9564 14.2478L55.3593 15.6497L63 8.0099ZM58.0425 8.0099L50.4017 0.368164L48.9999 1.77001L55.2388 8.0099L48.9999 14.2478L50.4017 15.6497L58.0425 8.0099Z" fill="#000716"/>
<path fill-rule="evenodd" clip-rule="evenodd" d="M82 1.01807L83.2845 2.30253L77.5696 8.01807L83.2845 13.7336L82 15.0181L75 8.01807L82 1.01807Z" fill="#000716"/>
<path fill-rule="evenodd" clip-rule="evenodd" d="M101.284 1.01807L100 2.30253L105.715 8.01807L100 13.7336L101.284 15.0181L108.284 8.01807L101.284 1.01807Z" fill="#000716"/>
<path fill-rule="evenodd" clip-rule="evenodd" d="M121 10.876L122.284 12.1604L128 6.44562L133.715 12.1604L135 10.876L128 3.87598L121 10.876Z" fill="#000716"/>
<path fill-rule="evenodd" clip-rule="evenodd" d="M145 5.16044L146.284 3.87598L152 9.5908L157.715 3.87598L159 5.16044L152 12.1604L145 5.16044Z" fill="#000716"/>
<path fill-rule="evenodd" clip-rule="evenodd" d="M176.507 0.317871L177.921 1.73208L172.628 7.02498H183.214V9.02498H172.628L177.921 14.3179L176.507 15.7321L168.8 8.02498L176.507 0.317871Z" fill="#000716"/>
<path fill-rule="evenodd" clip-rule="evenodd" d="M194 1.01807C193.448 1.01807 193 1.46578 193 2.01807V14.0181C193 14.5704 193.448 15.0181 194 15.0181H206C206.552 15.0181 207 14.5704 207 14.0181V2.01807C207 1.46578 206.552 1.01807 206 1.01807H194ZM205 3.01807H195V13.0181H205V3.01807ZM196 4.01807H198V6.01807H196V4.01807ZM204 4.01807H202V6.01807H204V4.01807ZM199 4.01807H201V6.01807H199V4.01807ZM198 7.01807H196V9.01807H198V7.01807ZM202 7.01807H204V9.01807H202V7.01807ZM201 7.01807H199V9.01807H201V7.01807ZM196 10.0181H198V12.0181H196V10.0181ZM201 10.0181H199V12.0181H201V10.0181Z" fill="#000716"/>
<path fill-rule="evenodd" clip-rule="evenodd" d="M226.444 3.18319C227.109 2.73892 228 3.21518 228 4.01449V12.0217C228 12.8201 227.11 13.2966 226.446 12.8541L220.445 8.85922C219.851 8.46396 219.85 7.59196 220.443 7.19551L226.444 3.18319Z" fill="#000716"/>
<path fill-rule="evenodd" clip-rule="evenodd" d="M245.556 3.18319C244.891 2.73892 244 3.21518 244 4.01449V12.0217C244 12.8201 244.89 13.2966 245.554 12.8541L251.555 8.85922C252.149 8.46396 252.15 7.59196 251.557 7.19551L245.556 3.18319Z" fill="#000716"/>
<path fill-rule="evenodd" clip-rule="evenodd" d="M267.165 10.4622C266.721 11.1267 267.197 12.0181 267.996 12.0181H276.004C276.802 12.0181 277.279 11.1285 276.836 10.4639L272.841 4.46298C272.446 3.86923 271.574 3.86836 271.177 4.46131L267.165 10.4622Z" fill="#000716"/>
<path fill-rule="evenodd" clip-rule="evenodd" d="M291.165 5.57389C290.721 4.90942 291.197 4.01807 291.996 4.01807H300.004C300.802 4.01807 301.279 4.90762 300.836 5.57222L296.841 11.5732C296.446 12.1669 295.574 12.1678 295.177 11.5748L291.165 5.57389Z" fill="#000716"/>
<path fill-rule="evenodd" clip-rule="evenodd" d="M340 4.01807C339.2 4.01807 338.724 4.91012 339.169 5.57453L343.167 11.5433C343.563 12.1354 344.434 12.1346 344.83 11.5417L348.81 5.57286C349.253 4.90831 348.777 4.01807 347.978 4.01807H340ZM346.106 6.01807H341.873L344 9.19652L346.106 6.01807Z" fill="#000716"/>
<path fill-rule="evenodd" clip-rule="evenodd" d="M316 11.9868C315.2 11.9868 314.724 11.0948 315.169 10.4304L319.167 4.46155C319.563 3.86945 320.434 3.87032 320.83 4.46322L324.81 10.432C325.253 11.0966 324.777 11.9868 323.978 11.9868H316ZM322.106 9.98682H317.873L320 6.80836L322.106 9.98682Z" fill="#000716"/>
<path fill-rule="evenodd" clip-rule="evenodd" d="M374.364 3.06855L372.95 1.65434L368 6.60408L363.05 1.65434L361.636 3.06855L366.586 8.0183L361.636 12.968L363.05 14.3823L368 9.43251L372.95 14.3823L374.364 12.968L369.414 8.0183L374.364 3.06855Z" fill="#000716"/>
<path fill-rule="evenodd" clip-rule="evenodd" d="M390 3.01807H397V10.0181H396V5.01807C396 4.46578 395.552 4.01807 395 4.01807H390V3.01807ZM398 12.0181H396V14.0181C396 14.5704 395.552 15.0181 395 15.0181H386C385.448 15.0181 385 14.5704 385 14.0181V5.01807C385 4.46578 385.448 4.01807 386 4.01807H388V2.01807C388 1.46578 388.448 1.01807 389 1.01807H398C398.552 1.01807 399 1.46578 399 2.01807V11.0181C399 11.5704 398.552 12.0181 398 12.0181ZM387 13.0181V6.01807H394V13.0181H387Z" fill="#000716"/>
<path fill-rule="evenodd" clip-rule="evenodd" d="M421 3.01807V13.0181H411V3.01807H413V1.01807H410C409.448 1.01807 409 1.46578 409 2.01807V14.0181C409 14.5704 409.448 15.0181 410 15.0181H422C422.552 15.0181 423 14.5704 423 14.0181V2.01807C423 1.46578 422.552 1.01807 422 1.01807H419V3.01807H421ZM412.707 5.31096L411.293 6.72517L416 11.4323L420.707 6.72517L419.293 5.31096L417 7.60385V1.01807H415V7.60385L412.707 5.31096Z" fill="#000716"/>
<path fill-rule="evenodd" clip-rule="evenodd" d="M446.057 1.26506C445.667 0.874537 445.034 0.874537 444.643 1.26506L443.229 2.67946L445.35 4.80078L446.764 3.38638C447.155 2.99586 447.155 2.36269 446.764 1.97217L446.057 1.26506ZM444.643 5.50789L442.521 3.38657L435.451 10.4574L437.572 12.5788L444.643 5.50789ZM434.142 11.7658L434.744 11.1646L436.865 13.2859L436.264 13.8872C436.166 13.9844 436.05 14.0605 435.922 14.1108L433.69 14.9878C433.283 15.1474 432.882 14.746 433.042 14.3396L433.919 12.1073C433.969 11.9793 434.045 11.8631 434.142 11.7658ZM438 15.0179L447 15.0179L447 13.0179L440 13.0179L438 15.0179Z" fill="#000716"/>
<path fill-rule="evenodd" clip-rule="evenodd" d="M9 35.0181C9 35.5704 8.55228 36.0181 8 36.0181C7.44772 36.0181 7 35.5704 7 35.0181C7 34.4658 7.44772 34.0181 8 34.0181C8.55228 34.0181 9 34.4658 9 35.0181ZM9 40.0181C9 40.5704 8.55228 41.0181 8 41.0181C7.44772 41.0181 7 40.5704 7 40.0181C7 39.4658 7.44772 39.0181 8 39.0181C8.55228 39.0181 9 39.4658 9 40.0181ZM8 46.0181C8.55228 46.0181 9 45.5704 9 45.0181C9 44.4658 8.55228 44.0181 8 44.0181C7.44772 44.0181 7 44.4658 7 45.0181C7 45.5704 7.44772 46.0181 8 46.0181Z" fill="#000716"/>
<path fill-rule="evenodd" clip-rule="evenodd" d="M31 33.0181V35.0181H28.4142L32 38.6039L35.5858 35.0181H33V33.0181H39V39.0181H37V36.4323L33.4142 40.0181L37 43.6039V41.0181H39V47.0181H33V45.0181H35.5858L32 41.4323L28.4142 45.0181H31V47.0181H25V41.0181H27V43.6039L30.5858 40.0181L27 36.4323V39.0181H25V33.0181H31Z" fill="#000716"/>
<path fill-rule="evenodd" clip-rule="evenodd" d="M51 45.0181H61V41.0681H63V46.0181C63 46.5704 62.5523 47.0181 62 47.0181H50C49.4477 47.0181 49 46.5704 49 46.0181V34.0181C49 33.4658 49.4477 33.0181 50 33.0181H55V35.0181H51V45.0181ZM57 33.0181H61H63V35.0181V39.0181H61V36.4323L54.7071 42.7252L53.2929 41.311L59.5858 35.0181H57V33.0181Z" fill="#000716"/>
<path fill-rule="evenodd" clip-rule="evenodd" d="M73 34.0181H87V36.0181H73V34.0181ZM73 39.0181H87V41.0181H73V39.0181ZM87 44.0181H73V46.0181H87V44.0181Z" fill="#000716"/>
<path fill-rule="evenodd" clip-rule="evenodd" d="M103 35.0181C103 34.4661 103.448 34.0181 104 34.0181C104.552 34.0181 105 34.4661 105 35.0181V39.0181C105 39.5701 104.552 40.0181 104 40.0181C103.448 40.0181 103 39.5701 103 39.0181V35.0181ZM101 39.0181C101 40.6721 102.346 42.0181 104 42.0181C105.654 42.0181 107 40.6721 107 39.0181V35.0181C107 33.3641 105.654 32.0181 104 32.0181C102.346 32.0181 101 33.3641 101 35.0181V39.0181ZM98 39.0181C98 41.9864 100.165 44.4575 103 44.9348V46.0181H99V48.0181H109V46.0181H105V44.9348C107.835 44.4575 110 41.9864 110 39.0181V38.0181H108V39.0181C108 41.2241 106.206 43.0181 104 43.0181C101.794 43.0181 100 41.2241 100 39.0181V38.0181H98V39.0181Z" fill="#000716"/>
<path fill-rule="evenodd" clip-rule="evenodd" d="M120.106 43.9661C120.275 44.3051 120.621 44.5181 121 44.5181H124.667V44.6851C124.667 46.4921 126.193 48.0181 128 48.0181C129.807 48.0181 131.334 46.4921 131.334 44.6851V44.5181H135C135.379 44.5181 135.725 44.3051 135.895 43.9661C136.064 43.6271 136.028 43.2221 135.8 42.9191L132.491 38.5061C132.398 36.7041 131.565 33.8881 129 33.3011V33.0181C129 32.4661 128.552 32.0181 128 32.0181C127.448 32.0181 127 32.4661 127 33.0181V33.3011C124.436 33.8881 123.603 36.7041 123.509 38.5061L120.2 42.9191C119.973 43.2221 119.936 43.6271 120.106 43.9661ZM125.3 39.4511C125.43 39.2781 125.5 39.0681 125.5 38.8511C125.5 38.7021 125.529 35.1851 128 35.1851C130.452 35.1851 130.499 38.7041 130.5 38.8511C130.5 39.0681 130.571 39.2781 130.7 39.4511L133 42.5181H123L125.3 39.4511ZM128 46.0181C128.711 46.0181 129.334 45.3951 129.334 44.6851V44.5181H126.667V44.6851C126.667 45.3951 127.29 46.0181 128 46.0181Z" fill="#000716"/>
<path fill-rule="evenodd" clip-rule="evenodd" d="M152 46.0183C155.314 46.0183 158 43.332 158 40.0183H160C160 44.4366 156.418 48.0183 152 48.0183C147.582 48.0183 144 44.4366 144 40.0183C144 35.6 147.582 32.0183 151.992 32.0183C154.33 31.9986 156.514 33.0161 158 34.7271V32.0183H160V38.0183H154V36.0183H156.472C155.363 34.7544 153.741 34.0036 152 34.0183C148.686 34.0183 146 36.7046 146 40.0183C146 43.332 148.686 46.0183 152 46.0183Z" fill="#000716"/>
<path fill-rule="evenodd" clip-rule="evenodd" d="M183.021 38.0159C182.676 37.9779 182.379 37.7524 182.241 37.4069C182.103 37.0831 182.157 36.709 182.382 36.4378C182.676 36.0829 182.689 35.573 182.414 35.2031C181.949 34.5773 181.394 34.0228 180.769 33.5574C180.396 33.2803 179.881 33.2962 179.527 33.5958C179.261 33.8199 178.894 33.8794 178.572 33.7506C178.249 33.6218 178.024 33.3257 177.986 32.9805C177.936 32.5273 177.586 32.1652 177.135 32.1001C176.377 31.9907 175.607 31.9907 174.849 32.1001C174.392 32.166 174.04 32.5356 173.996 32.9947C173.963 33.3425 173.74 33.6431 173.416 33.7753C173.093 33.9076 172.723 33.8495 172.456 33.6246C172.101 33.3261 171.587 33.3107 171.215 33.5874C170.589 34.0528 170.035 34.6073 169.569 35.2331C169.293 35.6052 169.308 36.1187 169.607 36.4736C169.831 36.7409 169.889 37.111 169.757 37.4344C169.625 37.7578 169.324 37.9812 168.977 38.0144C168.518 38.0583 168.148 38.4105 168.082 38.867C167.973 39.625 167.973 40.3947 168.082 41.1527C168.148 41.608 168.516 41.9598 168.973 42.005C169.318 42.0391 169.617 42.2603 169.749 42.5805C169.882 42.9007 169.828 43.268 169.608 43.5362C169.317 43.8911 169.306 44.3984 169.579 44.7666C170.045 45.3925 170.599 45.9469 171.225 46.4123C171.595 46.6874 172.105 46.674 172.46 46.3799C172.729 46.1571 173.099 46.1017 173.421 46.2359C173.743 46.3701 173.965 46.6718 173.996 47.0195C174.037 47.4809 174.39 47.8534 174.849 47.9196C175.607 48.029 176.377 48.029 177.135 47.9196C177.59 47.8539 177.942 47.486 177.987 47.0282C178.021 46.6832 178.242 46.385 178.562 46.2522C178.883 46.1195 179.25 46.1738 179.518 46.3934C179.873 46.6842 180.38 46.6961 180.749 46.4223C181.374 45.9569 181.929 45.4025 182.394 44.7766C182.669 44.4067 182.656 43.8967 182.362 43.5418C182.139 43.273 182.084 42.903 182.218 42.5807C182.352 42.2585 182.654 42.0371 183.001 42.0058C183.463 41.9643 183.835 41.6113 183.902 41.1527C184.011 40.3947 184.011 39.625 183.902 38.867C183.836 38.4158 183.474 38.0657 183.021 38.0159ZM180.078 35.5803C180.187 35.6823 180.293 35.7884 180.395 35.8984C180.093 36.618 180.085 37.4411 180.397 38.1815C180.694 38.917 181.27 39.4897 181.98 39.7897C181.985 39.9324 181.985 40.0751 181.98 40.2178C181.263 40.5087 180.678 41.0763 180.372 41.8119C180.064 42.5492 180.075 43.3666 180.375 44.0814C180.271 44.1936 180.163 44.3017 180.051 44.4057C179.34 44.1103 178.529 44.1011 177.797 44.4047C177.065 44.7079 176.499 45.2872 176.205 45.9979C176.065 46.0029 175.924 46.0029 175.784 45.9981C175.493 45.2813 174.925 44.6959 174.19 44.3896C173.452 44.0825 172.635 44.0929 171.92 44.3933C171.808 44.2893 171.7 44.1811 171.596 44.0688C171.891 43.3579 171.901 42.5469 171.597 41.8146C171.294 41.0831 170.714 40.5169 170.004 40.2232C169.999 40.0817 169.999 39.94 170.004 39.7985C170.722 39.5037 171.306 38.9311 171.609 38.1912C171.91 37.453 171.895 36.6371 171.591 35.925C171.693 35.816 171.798 35.7107 171.907 35.6095C172.619 35.9132 173.435 35.9284 174.173 35.6266C174.913 35.3241 175.486 34.7397 175.78 34.0218C175.924 34.0167 176.068 34.0168 176.212 34.0221C176.513 34.7351 177.09 35.3124 177.83 35.608C178.564 35.9011 179.372 35.8824 180.078 35.5803ZM176 43.0181C174.343 43.0181 173 41.6749 173 40.0181C173 38.3612 174.343 37.0181 176 37.0181C177.657 37.0181 179 38.3612 179 40.0181C179 41.6749 177.657 43.0181 176 43.0181ZM177 40.0181C177 40.5704 176.552 41.0181 176 41.0181C175.448 41.0181 175 40.5704 175 40.0181C175 39.4658 175.448 39.0181 176 39.0181C176.552 39.0181 177 39.4658 177 40.0181Z" fill="#000716"/>
<path fill-rule="evenodd" clip-rule="evenodd" d="M206 33.0181H194C193.447 33.0181 193 33.4651 193 34.0181V46.0181C193 46.5711 193.447 47.0181 194 47.0181H206C206.553 47.0181 207 46.5711 207 46.0181V34.0181C207 33.4651 206.553 33.0181 206 33.0181ZM195 45.0181H205V35.0181H195V45.0181ZM201 43.0181H199V41.0181H197V39.0181H199V37.0181H201V39.0181H203V41.0181H201V43.0181Z" fill="#000716"/>
<path fill-rule="evenodd" clip-rule="evenodd" d="M230 33.0181H218C217.447 33.0181 217 33.4651 217 34.0181V46.0181C217 46.5711 217.447 47.0181 218 47.0181H230C230.553 47.0181 231 46.5711 231 46.0181V34.0181C231 33.4651 230.553 33.0181 230 33.0181ZM219 45.0181H229V35.0181H219V45.0181ZM227 41.0181H225H223H221V39.0181H223H225H227V41.0181Z" fill="#000716"/>
<path fill-rule="evenodd" clip-rule="evenodd" d="M245.293 41.4321L246.707 40.0181L245.414 38.7251H249.625C251.5 38.7251 252 40.6111 252 41.7251C252 42.5461 251.766 43.3291 251.356 43.8751C250.934 44.4391 250.351 44.7251 249.625 44.7251H244V46.7251H249.625C250.976 46.7251 252.158 46.1391 252.956 45.0751C253.629 44.1781 254 42.9881 254 41.7251C254 39.2401 252.497 36.7251 249.625 36.7251H245.414L246.707 35.4321L245.293 34.0181L242.293 37.0181C241.902 37.4091 241.902 38.0411 242.293 38.4321L245.293 41.4321Z" fill="#000716"/>
<path fill-rule="evenodd" clip-rule="evenodd" d="M267 45.0181V35.0181H277V45.0181H275V47.0181H278C278.552 47.0181 279 46.5704 279 46.0181V34.0181C279 33.4658 278.552 33.0181 278 33.0181H266C265.448 33.0181 265 33.4658 265 34.0181V46.0181C265 46.5704 265.448 47.0181 266 47.0181H269V45.0181H267ZM275.293 42.7252L276.707 41.311L272 36.6039L267.293 41.311L268.707 42.7252L271 40.4323V47.0181H273V40.4323L275.293 42.7252Z" fill="#000716"/>
<path fill-rule="evenodd" clip-rule="evenodd" d="M290 33.0181H302C302.552 33.0181 303 33.4658 303 34.0181V46.0181C303 46.5704 302.552 47.0181 302 47.0181H290C289.448 47.0181 289 46.5704 289 46.0181V34.0181C289 33.4658 289.448 33.0181 290 33.0181ZM291 35.0181V45.0181H301V35.0181H291ZM300 36.0181H292V44.0181H300V36.0181Z" fill="#000716"/>
<path fill-rule="evenodd" clip-rule="evenodd" d="M314 33.0181H326C326.552 33.0181 327 33.4658 327 34.0181V46.0181C327 46.5704 326.552 47.0181 326 47.0181H314C313.448 47.0181 313 46.5704 313 46.0181V34.0181C313 33.4658 313.448 33.0181 314 33.0181ZM315 35.0181V45.0181H325V35.0181H315ZM324 39.0181H316V44.0181H324V39.0181Z" fill="#000716"/>
<path fill-rule="evenodd" clip-rule="evenodd" d="M337 46.0181V34.0181C337 33.4658 337.448 33.0181 338 33.0181H350C350.552 33.0181 351 33.4658 351 34.0181V46.0181C351 46.5704 350.552 47.0181 350 47.0181H338C337.448 47.0181 337 46.5704 337 46.0181ZM339 45.0181H349V35.0181H339V45.0181ZM343 36.0181V44.0181H348V36.0181H343Z" fill="#000716"/>
<path fill-rule="evenodd" clip-rule="evenodd" d="M363 39.4031C363 36.9851 364.967 35.0181 367.385 35.0181C369.803 35.0181 371.77 36.9851 371.77 39.4031C371.77 41.8211 369.803 43.7881 367.385 43.7881C364.967 43.7881 363 41.8211 363 39.4031ZM368.5 42.5181H366.5V40.5181H364.5V38.5181H366.5V36.5181H368.5V38.5181H370.5V40.5181H368.5V42.5181ZM361 39.4031C361 42.9231 363.864 45.7881 367.385 45.7881C368.785 45.7881 370.082 45.3348 371.136 44.5675L374.293 47.7251L375.707 46.3111L372.55 43.1534C373.317 42.0996 373.77 40.8032 373.77 39.4031C373.77 35.8821 370.906 33.0181 367.385 33.0181C363.864 33.0181 361 35.8821 361 39.4031Z" fill="#000716"/>
<path fill-rule="evenodd" clip-rule="evenodd" d="M391.385 35.0181C388.967 35.0181 387 36.9851 387 39.4031C387 41.8211 388.967 43.7881 391.385 43.7881C393.803 43.7881 395.77 41.8211 395.77 39.4031C395.77 36.9851 393.803 35.0181 391.385 35.0181ZM388.5 40.5181H394.5V38.5181H388.5V40.5181ZM385 39.4031C385 42.9231 387.864 45.7881 391.385 45.7881C392.785 45.7881 394.082 45.3348 395.136 44.5675L398.293 47.7251L399.707 46.3111L396.55 43.1534C397.317 42.0996 397.77 40.8032 397.77 39.4031C397.77 35.8821 394.906 33.0181 391.385 33.0181C387.864 33.0181 385 35.8821 385 39.4031Z" fill="#000716"/>
<path fill-rule="evenodd" clip-rule="evenodd" d="M416 34.0181C414.682 34.0181 413.61 35.0904 413.61 36.4081C413.61 37.7258 414.682 38.7981 416 38.7981C417.318 38.7981 418.39 37.7258 418.39 36.4081C418.39 35.0904 417.318 34.0181 416 34.0181ZM411.61 36.4081C411.61 33.9858 413.578 32.0181 416 32.0181C418.422 32.0181 420.39 33.9858 420.39 36.4081C420.39 37.6825 419.845 38.8312 418.976 39.6336C419.167 39.7292 419.353 39.8341 419.537 39.9481C421.521 41.1759 423 43.3778 423 46.0181V47.0181H409V46.0181C409 43.165 410.639 40.7394 412.997 39.6087C412.144 38.8075 411.61 37.6694 411.61 36.4081ZM418.482 41.6473C417.715 41.1704 416.887 40.926 416.002 40.9281L416 40.9281C413.596 40.9281 411.551 42.6521 411.095 45.0181H420.897C420.601 43.5923 419.687 42.3924 418.484 41.6485L418.482 41.6473Z" fill="#000716"/>
<path fill-rule="evenodd" clip-rule="evenodd" d="M436.211 39.4453L435 40.6564L439.636 45.2929L449 35.9293L447.789 34.7183L439.636 42.8707L436.211 39.4453Z" fill="#000716"/>
</svg>
