<svg width="458" height="48" viewBox="0 0 458 48" fill="none" xmlns="http://www.w3.org/2000/svg">
<path fill-rule="evenodd" clip-rule="evenodd" d="M7.42416 0.0944227C7.77554 0.259003 8 0.611995 8 1.00001V15C8 15.388 7.77554 15.741 7.42416 15.9056C7.07277 16.0702 6.6579 16.0166 6.35982 15.7682L0.359816 10.7682C0.131823 10.5782 0 10.2968 0 10V6.00001C0 5.70323 0.131823 5.42179 0.359816 5.23179L6.35982 0.231791C6.6579 -0.0166119 7.07277 -0.070157 7.42416 0.0944227ZM2 6.46839V9.53164L6 12.865V3.13505L2 6.46839Z" fill="#000716"/>
<path d="M14 13V3.00001H16V13H14Z" fill="#000716"/>
<path d="M10 5.00001V11H12V5.00001H10Z" fill="#000716"/>
<path fill-rule="evenodd" clip-rule="evenodd" d="M34 1.00001C34 0.611995 33.7755 0.259003 33.4242 0.0944227C33.0728 -0.070157 32.6579 -0.0166119 32.3598 0.231791L26.3598 5.23179C26.1318 5.42179 26 5.70323 26 6.00001V10C26 10.2968 26.1318 10.5782 26.3598 10.7682L32.3598 15.7682C32.6579 16.0166 33.0728 16.0702 33.4242 15.9056C33.7755 15.741 34 15.388 34 15V1.00001ZM28 9.53164V6.46839L32 3.13505V12.865L28 9.53164ZM36 5.00001V11H38V5.00001H36Z" fill="#000716"/>
<path fill-rule="evenodd" clip-rule="evenodd" d="M59.4242 0.0944227C59.7755 0.259003 60 0.611995 60 1.00001V15C60 15.388 59.7755 15.741 59.4242 15.9056C59.0728 16.0702 58.6579 16.0166 58.3598 15.7682L52.3598 10.7682C52.1318 10.5782 52 10.2968 52 10V6.00001C52 5.70323 52.1318 5.42179 52.3598 5.23179L58.3598 0.231791C58.6579 -0.0166119 59.0728 -0.070157 59.4242 0.0944227ZM54 6.46839V9.53164L58 12.865V3.13505L54 6.46839ZM64.7598 6.5858L66.3027 5.04291L67.7169 6.45712L66.174 8.00001L67.7169 9.54291L66.3027 10.9571L64.7598 9.41423L63.2169 10.9571L61.8027 9.54291L63.3456 8.00001L61.8027 6.45712L63.2169 5.04291L64.7598 6.5858Z" fill="#000716"/>
<path fill-rule="evenodd" clip-rule="evenodd" d="M81.0001 0C80.4478 0 80.0001 0.447715 80.0001 1V7H82.0001V2H85.0001V7C85.0001 7.55228 85.4478 8 86.0001 8H91.0001V14H87.0001V16H92.0001C92.5524 16 93.0001 15.5523 93.0001 15V6C93.0001 5.73478 92.8947 5.48043 92.7072 5.29289L87.7072 0.292893C87.5196 0.105357 87.2653 0 87.0001 0H81.0001ZM90.5859 6L87.0001 2.41421V6H90.5859ZM82.0001 13.4142L79.7072 15.7071L78.293 14.2929L80.5859 12L78.293 9.70711L79.7072 8.29289L82.0001 10.5858L84.293 8.29289L85.7072 9.70711L83.4143 12L85.7072 14.2929L84.293 15.7071L82.0001 13.4142Z" fill="#000716"/>
<path fill-rule="evenodd" clip-rule="evenodd" d="M107.484 1.84812C109.148 1.24707 110.984 1.43081 112.503 2.31602L112.506 2.31776C113.508 2.90626 114.74 3.02008 115.845 2.62769L115.849 2.62659L116.959 2.23659C117.264 2.12909 117.604 2.17663 117.868 2.36412C118.133 2.5516 118.29 2.85576 118.29 3.18005V9.18005C118.29 9.60455 118.022 9.98279 117.621 10.1235L116.516 10.512C114.852 11.113 113.016 10.9293 111.497 10.0441L111.494 10.0423C110.492 9.45383 109.26 9.34001 108.155 9.73241L108.152 9.73351L107.71 9.88862V15.01H105.71V3.18005C105.71 2.75554 105.978 2.3773 106.379 2.23659L107.484 1.84812ZM107.71 7.77292C109.305 7.2767 111.055 7.46625 112.505 8.31677C113.524 8.91006 114.744 9.02655 115.839 8.62986L115.849 8.62654L116.29 8.47147V4.58718C114.695 5.0834 112.945 4.89384 111.495 4.04327C110.476 3.45003 109.256 3.33356 108.161 3.73024L108.152 3.73355L107.71 3.88862V7.77292Z" fill="#000716"/>
<path fill-rule="evenodd" clip-rule="evenodd" d="M134 3C133.448 3 133 3.44772 133 4C133 4.55229 133.448 5 134 5C134.552 5 135 4.55229 135 4C135 3.44772 134.552 3 134 3ZM131 4C131 2.34315 132.343 1 134 1C135.657 1 137 2.34315 137 4C137 5.65676 135.657 6.99984 134 7C136.212 7.00016 138 8.78781 138 11C138 8.78772 139.788 7 142 7C144.212 7 146 8.78772 146 11V14C146 14.5523 145.552 15 145 15H139C138.448 15 138 14.5523 138 14C138 14.5523 137.552 15 137 15H131C130.448 15 130 14.5523 130 14V11C130 8.78772 131.788 7 134 7C132.343 7 131 5.65685 131 4ZM142 7C140.343 7 139 5.65685 139 4C139 2.34315 140.343 1 142 1C143.657 1 145 2.34315 145 4C145 5.65685 143.657 7 142 7ZM141 4C141 3.44772 141.448 3 142 3C142.552 3 143 3.44772 143 4C143 4.55229 142.552 5 142 5C141.448 5 141 4.55229 141 4ZM140 11C140 9.89228 140.892 9 142 9C143.108 9 144 9.89228 144 11V13H140V11ZM132 11C132 9.89228 132.892 9 134 9C135.108 9 136 9.89228 136 11V13H132V11Z" fill="#000716"/>
<path fill-rule="evenodd" clip-rule="evenodd" d="M160 1C158.343 1 157 2.34315 157 4C157 5.65685 158.343 7 160 7C157.788 7 156 8.78772 156 11V14C156 14.5523 156.448 15 157 15H163C163.552 15 164 14.5523 164 14C164 14.5523 164.448 15 165 15H171C171.552 15 172 14.5523 172 14V11C172 8.78772 170.212 7 168 7C169.657 7 171 5.65685 171 4C171 2.34315 169.657 1 168 1C166.343 1 165 2.34315 165 4C165 5.65624 166.342 6.99901 167.998 7C165.787 7.00099 164 8.78833 164 11C164 8.78772 162.212 7 160 7C161.657 7 163 5.65685 163 4C163 2.34315 161.657 1 160 1ZM167 4C167 3.44772 167.448 3 168 3C168.552 3 169 3.44772 169 4C169 4.55229 168.552 5 168 5C167.448 5 167 4.55229 167 4ZM166 11C166 9.89228 166.892 9 168 9C169.108 9 170 9.89228 170 11V13H166V11Z" fill="#000716"/>
<path fill-rule="evenodd" clip-rule="evenodd" d="M182 3C182 2.44772 182.448 2 183 2H197C197.552 2 198 2.44772 198 3V6H196V4H184V11H188V13H183C182.448 13 182 12.5523 182 12V3ZM195 10H198V12H195V15H193V12H190V10H193V7H195V10Z" fill="#000716"/>
<path fill-rule="evenodd" clip-rule="evenodd" d="M209 1C208.448 1 208 1.44772 208 2V14C208 14.5523 208.448 15 209 15H223C223.552 15 224 14.5523 224 14V2C224 1.44772 223.552 1 223 1H209ZM210 13V3H222V13H210ZM214 4H212V6H214V4ZM215 4H217V6H215V4ZM220 4H218V6H220V4ZM212 7H214V9H212V7ZM220 10H212V12H220V10ZM215 7H217V9H215V7ZM220 7H218V9H220V7Z" fill="#000716"/>
<path fill-rule="evenodd" clip-rule="evenodd" d="M239 0.228516C238.448 0.228516 238 0.676231 238 1.22852V4H235C234.448 4 234 4.44772 234 5V12C234 12.5523 234.448 13 235 13H239V14H235V16H245V14H241V13H245C245.552 13 246 12.5523 246 12V9.22851L249 9.22851C249.265 9.22851 249.52 9.12316 249.707 8.93562C249.895 8.74808 250 8.49373 250 8.22851V1.22852C250 0.676231 249.552 0.228516 249 0.228516H239ZM246 7.22851L248 7.22851V2.22852H240V4H245C245.552 4 246 4.44772 246 5V7.22851ZM236 11V6H244V11H236Z" fill="#000716"/>
<path fill-rule="evenodd" clip-rule="evenodd" d="M266 1C265.448 1 265 1.44772 265 2H263H261V4H262.087L263.004 14.0905C263.051 14.6056 263.483 15 264 15H272C272.517 15 272.949 14.6056 272.996 14.0905L273.913 4H275V2H273H271C271 1.44772 270.552 1 270 1H266ZM266 4H264.095L264.913 13H271.087L271.905 4H270H266Z" fill="#000716"/>
<path fill-rule="evenodd" clip-rule="evenodd" d="M288.414 8.00008L291.207 5.20718L289.793 3.79297L286.293 7.29297C285.902 7.68349 285.902 8.31666 286.293 8.70718L289.793 12.2072L291.207 10.793L288.414 8.00008ZM291.546 11.3179L294.606 3.91787L296.454 4.68213L293.394 12.0821L291.546 11.3179ZM301.707 7.29297L298.207 3.79297L296.793 5.20718L299.586 8.00008L296.793 10.793L298.207 12.2072L301.707 8.70718C302.098 8.31666 302.098 7.68349 301.707 7.29297Z" fill="#000716"/>
<path fill-rule="evenodd" clip-rule="evenodd" d="M320.567 0.183364C320.22 -0.0621474 319.755 -0.0610481 319.409 0.186247L319.393 0.197168C319.378 0.207494 319.353 0.224269 319.319 0.24658C319.251 0.291233 319.147 0.357874 319.009 0.439248C318.734 0.602317 318.331 0.822666 317.832 1.0435C316.825 1.48876 315.469 1.91627 314 1.91627H313V2.91627V7.74071C313 10.6134 314.799 12.5603 316.415 13.7273C317.233 14.3183 318.044 14.7409 318.649 15.0156C318.952 15.1536 319.207 15.2559 319.388 15.3246C319.479 15.359 319.552 15.3851 319.604 15.4032C319.63 15.4122 319.651 15.4193 319.666 15.4243L319.685 15.4304L319.691 15.4324L319.693 15.4331L320 15.4815L319.694 15.4336C319.893 15.4974 320.107 15.4974 320.306 15.4336L320.307 15.4331L320.309 15.4324L320.315 15.4304L320.334 15.4243C320.349 15.4193 320.37 15.4122 320.396 15.4032C320.448 15.3851 320.521 15.359 320.612 15.3246C320.793 15.2559 321.048 15.1536 321.351 15.0156C321.956 14.7409 322.767 14.3183 323.585 13.7273C325.201 12.5603 327 10.6134 327 7.74074V2.9163C327 2.86808 326.997 2.82066 326.99 2.77427V1.91627H325.99C325.986 1.91627 325.982 1.91628 325.978 1.91627C324.523 1.91201 323.177 1.49027 322.17 1.04895C322.166 1.04713 322.162 1.04532 322.158 1.0435C321.658 0.822666 321.256 0.602317 320.981 0.439248C320.843 0.357874 320.739 0.291233 320.671 0.24658C320.637 0.224269 320.612 0.207494 320.597 0.197168L320.582 0.18665C320.582 0.18665 320.581 0.186272 320.578 0.190883L320.569 0.184717L320.567 0.183364ZM321.366 2.87986C322.309 3.29554 323.567 3.72121 324.99 3.86518V7.74071H325C325 9.68286 323.799 11.1063 322.415 12.106C321.733 12.5984 321.044 12.9582 320.524 13.195C320.316 13.2892 320.138 13.3629 320 13.417C319.862 13.3629 319.684 13.2892 319.476 13.195C318.956 12.9582 318.267 12.5984 317.585 12.106C316.201 11.1063 315 9.68288 315 7.74074V3.86521C316.431 3.72041 317.695 3.2907 318.641 2.87277C319.203 2.62424 319.663 2.37525 319.992 2.18195C320.322 2.37522 320.785 2.62455 321.351 2.87346C321.356 2.87559 321.361 2.87773 321.366 2.87986ZM319 3.65079V8.65079H321V3.65079H319ZM319 11.6508V9.65079H321V11.6508H319Z" fill="#000716"/>
<path fill-rule="evenodd" clip-rule="evenodd" d="M350.414 5.00008L353.707 1.70718L352.293 0.292969L349 3.58586V1.00008H347V6.00008V7.00008H348H353V5.00008H350.414ZM339 9.00008H344H345V10.0001V15.0001H343V12.4143L339.707 15.7072L338.293 14.293L341.586 11.0001H339V9.00008Z" fill="#000716"/>
<path fill-rule="evenodd" clip-rule="evenodd" d="M368.986 1.85853C370.765 0.577103 373.235 0.577103 375.014 1.85853L375.014 1.85795C376.209 2.717 377.023 4.04998 377 5.76738C376.997 7.56527 376.003 8.73743 375.217 9.54587C375.075 9.69149 374.948 9.81823 374.833 9.93345C374.596 10.1687 374.409 10.3559 374.245 10.5577C374.016 10.839 374 10.9604 374 11V12H370V11C370 10.9604 369.984 10.839 369.755 10.5577C369.591 10.3559 369.403 10.1687 369.167 9.93345C369.052 9.81823 368.925 9.69149 368.783 9.54587C367.997 8.73743 367.003 7.56526 367 5.76735C366.977 4.04997 367.791 2.71699 368.986 1.85795L368.986 1.85853ZM373.846 3.48139C372.765 2.70282 371.235 2.70282 370.154 3.48139L370.154 3.48198C369.431 4.00171 368.985 4.74616 369 5.74525L369 5.7526V5.75996C369 6.73787 369.504 7.41859 370.217 8.15154C370.302 8.23931 370.397 8.33398 370.496 8.43305C370.769 8.70458 371.074 9.00922 371.307 9.29567C371.468 9.49362 371.635 9.72844 371.765 9.99995H372.235C372.365 9.72844 372.532 9.49362 372.693 9.29567C372.926 9.00922 373.231 8.70458 373.504 8.43305C373.603 8.33398 373.698 8.23931 373.783 8.15154C374.496 7.41859 375 6.73787 375 5.75996V5.7526L375 5.74525C375.015 4.74616 374.569 4.00171 373.846 3.48198L373.846 3.48139ZM374 14.9999H370V12.9999H374V14.9999Z" fill="#000716"/>
<path fill-rule="evenodd" clip-rule="evenodd" d="M392 1C391.448 1 391 1.44772 391 2V9C391 9.55228 391.448 10 392 10H394.434L396.773 13.8948L396.774 13.8978C397.184 14.575 397.928 15 398.73 15C399.992 15 401.01 13.9823 401.01 12.72V11.05H402.45C404.403 11.05 405.825 9.21781 405.361 7.3311L405.36 7.32804L404.351 3.28004L404.35 3.27861C404.02 1.94475 402.821 1 401.44 1H395H392ZM393 8V3H394V8H393ZM396 8.72284L398.486 12.8622L398.486 12.8631C398.536 12.9454 398.633 13 398.73 13C398.888 13 399.01 12.8777 399.01 12.72V10.05C399.01 9.49772 399.458 9.05 400.01 9.05H402.45C403.097 9.05 403.574 8.44302 403.419 7.81019L403.419 7.80891L402.41 3.76198L402.409 3.75997C402.299 3.31459 401.898 3 401.44 3H396V8.72284Z" fill="#000716"/>
<path fill-rule="evenodd" clip-rule="evenodd" d="M421.858 1.00024C421.904 0.993647 421.952 0.990234 422 0.990234H427.43C428.811 0.990234 430.01 1.93496 430.34 3.26881L430.341 3.27027L431.351 7.32133C431.815 9.20803 430.393 11.0402 428.44 11.0402H426V13.3702C426 14.2625 425.272 14.9902 424.38 14.9902C423.792 14.9902 423.21 14.6638 422.932 14.0909L421.302 10.8301C421.16 10.563 421.074 10.279 421.031 10.0002H418C417.448 10.0002 417 9.55253 417 9.00024V2.00024C417 1.44796 417.448 1.00024 418 1.00024H421.858ZM421 3.00024V8.00024H419V3.00024H421Z" fill="#000716"/>
<path fill-rule="evenodd" clip-rule="evenodd" d="M450.486 3.13686L450.485 3.1378L448 7.27716V13H453.44C453.898 13 454.299 12.6854 454.409 12.24L455.419 8.1911L455.419 8.18998C455.574 7.55708 455.097 6.95 454.45 6.95H452.01C451.458 6.95 451.01 6.50228 451.01 5.95V3.28C451.01 3.12228 450.888 3 450.73 3C450.633 3 450.536 3.05459 450.486 3.13686ZM446 13V8H445V13H446ZM446.434 6L448.773 2.10521L448.774 2.10219C449.184 1.42499 449.928 1 450.73 1C451.992 1 453.01 2.01771 453.01 3.28V4.95H454.45C456.403 4.95 457.825 6.78221 457.361 8.66891L457.36 8.67198L456.351 12.72L456.351 12.721C456.02 14.0551 454.821 15 453.44 15H444C443.448 15 443 14.5523 443 14V7C443 6.44771 443.448 6 444 6H446.434Z" fill="#000716"/>
<path fill-rule="evenodd" clip-rule="evenodd" d="M6.93231 33.9091C7.21038 33.3362 7.79216 33.0098 8.38 33.0098C9.27229 33.0098 10 33.7375 10 34.6298V36.9598H12.44C14.3927 36.9598 15.8152 38.792 15.351 40.6787L15.3503 40.6817L14.3408 44.7297L14.3404 44.7312C14.01 46.065 12.8112 47.0098 11.43 47.0098H6C5.95178 47.0098 5.90437 47.0064 5.85797 46.9998H2C1.44772 46.9998 1 46.552 1 45.9998V38.9998C1 38.4475 1.44772 37.9998 2 37.9998H5.03149C5.07359 37.721 5.15987 37.437 5.30192 37.1699L6.93231 33.9091ZM5 39.9998H3V44.9998H5V39.9998Z" fill="#000716"/>
<path fill-rule="evenodd" clip-rule="evenodd" d="M28 34C28 33.4477 28.4477 33 29 33H32C32.5523 33 33 33.4477 33 34C33 34.5545 33.449 35 34 35C34.551 35 35 34.5545 35 34C35 33.4477 35.4477 33 36 33H39C39.5523 33 40 33.4477 40 34V46C40 46.5523 39.5523 47 39 47H36C35.4477 47 35 46.5523 35 46C35 45.4455 34.551 45 34 45C33.449 45 33 45.4455 33 46C33 46.5523 32.5523 47 32 47H29C28.4477 47 28 46.5523 28 46V34ZM30 35V45H31.1703C31.583 43.831 32.6987 43 34 43C35.3013 43 36.417 43.831 36.8297 45H38V35H36.8297C36.417 36.169 35.3013 37 34 37C32.6987 37 31.583 36.169 31.1703 35H30Z" fill="#000716"/>
<path fill-rule="evenodd" clip-rule="evenodd" d="M63 34.2871L66.7072 37.9942L65.2929 39.4084L64 38.1155V45.7013H62V38.1155L60.7072 39.4084L59.2929 37.9942L63 34.2871ZM55.9801 42.247V34.6612H57.9801V42.247L59.2729 40.9541L60.6872 42.3684L56.9801 46.0755L53.2729 42.3684L54.6872 40.9541L55.9801 42.247Z" fill="#000716"/>
<path fill-rule="evenodd" clip-rule="evenodd" d="M90.5 36.5C90.5 37.7707 89.9733 38.9184 89.1263 39.7367C91.4219 40.8862 93 43.2609 93 46V47H79V46C79 43.2609 80.5781 40.8862 82.8737 39.7367C82.0267 38.9184 81.5 37.7707 81.5 36.5C81.5 34.0147 83.5147 32 86 32C88.4853 32 90.5 34.0147 90.5 36.5Z" fill="#000716"/>
<path fill-rule="evenodd" clip-rule="evenodd" d="M112 35C109.791 35 108 36.7909 108 39C108 41.2091 109.791 43 112 43C114.209 43 116 41.2091 116 39C116 36.7909 114.209 35 112 35ZM106 39C106 35.6863 108.686 33 112 33C115.314 33 118 35.6863 118 39C118 41.973 115.838 44.441 113 44.917V46H117V48H107V46H111V44.917C108.162 44.441 106 41.973 106 39ZM114.5 40H109.5V38H114.5V40Z" fill="#000716"/>
<path fill-rule="evenodd" clip-rule="evenodd" d="M138 35C135.791 35 134 36.7909 134 39C134 41.2091 135.791 43 138 43C140.209 43 142 41.2091 142 39C142 36.7909 140.209 35 138 35ZM132 39C132 35.6863 134.686 33 138 33C141.314 33 144 35.6863 144 39C144 41.973 141.838 44.441 139 44.917V46H143V48H133V46H137V44.917C134.162 44.441 132 41.973 132 39ZM136.586 39L135.293 37.7071L136.707 36.2929L138 37.5858L139.293 36.2929L140.707 37.7071L139.414 39L140.707 40.2929L139.293 41.7071L138 40.4142L136.707 41.7071L135.293 40.2929L136.586 39Z" fill="#000716"/>
<path fill-rule="evenodd" clip-rule="evenodd" d="M164 35C161.791 35 160 36.7909 160 39C160 41.2091 161.791 43 164 43C166.209 43 168 41.2091 168 39C168 36.7909 166.209 35 164 35ZM158 39C158 35.6863 160.686 33 164 33C167.314 33 170 35.6863 170 39C170 41.973 167.838 44.441 165 44.917V46H169V48H159V46H163V44.917C160.162 44.441 158 41.973 158 39ZM162 39C162 37.8954 162.895 37 164 37C165.105 37 166 37.8954 166 39C166 40.1046 165.105 41 164 41C162.895 41 162 40.1046 162 39Z" fill="#000716"/>
<path fill-rule="evenodd" clip-rule="evenodd" d="M183 33H188V35H185V37H183V33ZM192 33H197V37H195V35H192V33ZM187 37H193V43H187V37ZM189 39V41H191V39H189ZM183 43H185V45H188V47H183V43ZM195 45V43H197V47H192V45H195Z" fill="#000716"/>
</svg>
