<svg width="160" height="17" viewBox="0 0 160 17" fill="none" xmlns="http://www.w3.org/2000/svg">
<path fill-rule="evenodd" clip-rule="evenodd" d="M0 8.26807C0 12.6863 3.58172 16.2681 8 16.2681C12.4183 16.2681 16 12.6863 16 8.26807C16 3.84979 12.4183 0.268066 8 0.268066C3.58172 0.268066 0 3.84979 0 8.26807ZM14 8.26807C14 11.5818 11.3137 14.2681 8 14.2681C4.68629 14.2681 2 11.5818 2 8.26807C2 4.95436 4.68629 2.26807 8 2.26807C11.3137 2.26807 14 4.95436 14 8.26807ZM7 9.26807V10.2681H6V12.2681H7H9H10V10.2681H9V7.26807H8H7H6V9.26807H7ZM9 6.26807V4.26807H7V6.26807H9Z" fill="#000716"/>
<path fill-rule="evenodd" clip-rule="evenodd" d="M32 0.268066C27.589 0.268066 24 3.85707 24 8.26807C24 12.6791 27.589 16.2681 32 16.2681C36.411 16.2681 40 12.6791 40 8.26807C40 3.85707 36.411 0.268066 32 0.268066ZM32 14.2681C28.691 14.2681 26 11.5771 26 8.26807C26 4.95907 28.691 2.26807 32 2.26807C35.309 2.26807 38 4.95907 38 8.26807C38 11.5771 35.309 14.2681 32 14.2681ZM30 9.26807H28V7.26807H30V9.26807ZM35.994 9.26807H33.994V7.26807H35.994V9.26807ZM31 9.26807H33V7.26807H31V9.26807Z" fill="#000716"/>
<path fill-rule="evenodd" clip-rule="evenodd" d="M48 8.26807C48 12.6863 51.5817 16.2681 56 16.2681C60.4183 16.2681 64 12.6863 64 8.26807C64 3.84979 60.4183 0.268066 56 0.268066C51.5817 0.268066 48 3.84979 48 8.26807ZM62 8.26807C62 11.5818 59.3137 14.2681 56 14.2681C52.6863 14.2681 50 11.5818 50 8.26807C50 4.95436 52.6863 2.26807 56 2.26807C59.3137 2.26807 62 4.95436 62 8.26807ZM54.5858 8.26807L52.4629 10.391L53.8771 11.8052L56 9.68228L58.1229 11.8052L59.5371 10.391L57.4142 8.26807L59.5371 6.14517L58.1229 4.73096L56 6.85385L53.8771 4.73096L52.4629 6.14517L54.5858 8.26807Z" fill="#000716"/>
<path fill-rule="evenodd" clip-rule="evenodd" d="M72 8.26807C72 12.6863 75.5817 16.2681 80 16.2681C84.4183 16.2681 88 12.6863 88 8.26807C88 3.84979 84.4183 0.268066 80 0.268066C75.5817 0.268066 72 3.84979 72 8.26807ZM86 8.26807C86 11.5818 83.3137 14.2681 80 14.2681C76.6863 14.2681 74 11.5818 74 8.26807C74 4.95436 76.6863 2.26807 80 2.26807C83.3137 2.26807 86 4.95436 86 8.26807ZM79 4.26807V8.26807H76V10.2681H79H81V8.26807V4.26807H79Z" fill="#000716"/>
<path fill-rule="evenodd" clip-rule="evenodd" d="M104 16.2681C99.5817 16.2681 96 12.6863 96 8.26807C96 3.84979 99.5817 0.268066 104 0.268066C108.418 0.268066 112 3.84979 112 8.26807C112 12.6863 108.418 16.2681 104 16.2681ZM104 14.2681C107.314 14.2681 110 11.5818 110 8.26807C110 4.95436 107.314 2.26807 104 2.26807C100.686 2.26807 98 4.95436 98 8.26807C98 11.5818 100.686 14.2681 104 14.2681ZM99.5858 8.26807L101 6.85385L103 8.85385L106.52 5.33385L107.934 6.74807L103 11.6823L99.5858 8.26807Z" fill="#000716"/>
<path fill-rule="evenodd" clip-rule="evenodd" d="M128 16.2681C123.582 16.2681 120 12.6863 120 8.26807C120 3.84979 123.582 0.268066 128 0.268066C132.418 0.268066 136 3.84979 136 8.26807C136 12.6863 132.418 16.2681 128 16.2681ZM128 14.2681C131.314 14.2681 134 11.5818 134 8.26807C134 4.95436 131.314 2.26807 128 2.26807C124.686 2.26807 122 4.95436 122 8.26807C122 11.5818 124.686 14.2681 128 14.2681ZM124 7.26807H132V9.26807H124V7.26807Z" fill="#000716"/>
<path fill-rule="evenodd" clip-rule="evenodd" d="M159.896 14.8209L152.896 0.820853C152.527 0.0838043 151.475 0.0838043 151.107 0.820853L144.107 14.8209C143.774 15.4858 144.258 16.2681 145.001 16.2681H159.001C159.745 16.2681 160.228 15.4858 159.896 14.8209ZM146.619 14.2681L152.001 3.50413L157.383 14.2681H146.619ZM153.001 11.2681V13.2681H151.001V11.2681H153.001ZM151.001 10.2681V6.26807H153.001V10.2681H151.001Z" fill="#000716"/>
</svg>
