<svg width="352" height="17" viewBox="0 0 352 17" fill="none" xmlns="http://www.w3.org/2000/svg">
<path fill-rule="evenodd" clip-rule="evenodd" d="M2.89443 7.76807H1.27639L0 5.21528L1.78885 4.32085L2.51246 5.76807H3.16199C3.35185 5.43985 3.63231 5.1706 3.96917 4.9945C4.3295 3.15555 5.94993 1.76807 7.89443 1.76807C9.83892 1.76807 11.4594 3.15556 11.8197 4.9945C12.1565 5.1706 12.437 5.43985 12.6269 5.76807H13.2764L14 4.32085L15.7889 5.21528L14.5125 7.76807H12.8944V8.76807H14.8944V10.7681H12.8944V11.7681H14.5125L15.7889 14.3209L14 15.2153L13.2764 13.7681H12.6384C12.0206 15.5159 10.3538 16.7681 8.39443 16.7681H7.39443C5.4351 16.7681 3.76824 15.5159 3.15049 13.7681H2.51246L1.78885 15.2153L0 14.3209L1.27639 11.7681H2.89443V10.7681H0.894427V8.76807H2.89443V7.76807ZM9.62686 4.76807C9.28105 4.17026 8.63471 3.76807 7.89443 3.76807C7.15414 3.76807 6.5078 4.17026 6.16199 4.76807H9.62686ZM4.89443 12.2681V6.76807H10.8944V12.2681C10.8944 13.6488 9.77514 14.7681 8.39443 14.7681H7.39443C6.01372 14.7681 4.89443 13.6488 4.89443 12.2681Z" fill="#000716"/>
<path fill-rule="evenodd" clip-rule="evenodd" d="M39.1039 7.86577H37.1039C37.1039 5.65977 35.3099 3.86577 33.1039 3.86577V1.86577C36.4129 1.86577 39.1039 4.55677 39.1039 7.86577ZM28.684 3.73197L27.711 4.77297C27.253 5.23097 27 5.84297 27 6.49797C27 7.15197 27.253 7.76497 27.711 8.22297L32.746 13.258C33.663 14.174 35.281 14.174 36.197 13.258L37.204 12.253L35.822 10.871L35.66 11C34.714 11.945 33.177 11.945 32.232 11L29.97 8.73797C29.025 7.79297 29.025 6.25497 29.97 5.30997L30.116 5.16497L28.684 3.73197ZM34.472 15.969C33.284 15.969 32.168 15.508 31.332 14.672L26.297 9.63697C25.461 8.80097 25 7.68597 25 6.49797C25 5.30897 25.461 4.19397 26.297 3.35897L27.303 2.35197C28.07 1.58697 29.35 1.57197 30.097 2.31697L31.626 3.84697C31.995 4.21497 32.174 4.74997 32.119 5.31097C32.072 5.78997 31.857 6.25197 31.53 6.57897L31.384 6.72397C31.222 6.88597 31.222 7.16197 31.384 7.32397L33.646 9.58597C33.808 9.74797 34.083 9.74797 34.246 9.58597L34.391 9.43997C34.718 9.11297 35.18 8.89797 35.659 8.85097C36.217 8.79397 36.754 8.97497 37.122 9.34297L38.652 10.872C39.399 11.621 39.383 12.899 38.619 13.666L37.611 14.672C36.776 15.508 35.661 15.969 34.472 15.969Z" fill="#000716"/>
<path fill-rule="evenodd" clip-rule="evenodd" d="M50 14.0541H54.729L56.15 15.4751C56.338 15.6631 56.593 15.7681 56.857 15.7681C57.123 15.7681 57.377 15.6631 57.564 15.4751L58.985 14.0541H62C62.553 14.0541 63 13.6061 63 13.0541V2.76807C63 2.21607 62.553 1.76807 62 1.76807H50C49.447 1.76807 49 2.21607 49 2.76807V13.0541C49 13.6061 49.447 14.0541 50 14.0541ZM51 3.76807H61V12.0541H58.571C58.306 12.0541 58.052 12.1591 57.864 12.3471L56.857 13.3541L55.85 12.3471C55.662 12.1591 55.408 12.0541 55.143 12.0541H51V3.76807ZM52.0002 8.77787L51.9902 6.77787L53.9902 6.76787L54.0002 8.77787H52.0002ZM56.9902 6.76807L54.9902 6.77807L55.0002 8.77807H57.0002L56.9902 6.76807ZM59.99 6.76787L60 8.77787H58L57.99 6.77787L59.99 6.76787Z" fill="#000716"/>
<path fill-rule="evenodd" clip-rule="evenodd" d="M73 1.76807H87C87.5523 1.76807 88 2.21578 88 2.76807V14.7681C88 15.3204 87.5523 15.7681 87 15.7681H73C72.4477 15.7681 72 15.3204 72 14.7681V2.76807C72 2.21578 72.4477 1.76807 73 1.76807ZM74 5.94229V13.7681H86V5.94229L80 11.0851L74 5.94229ZM74.5366 3.76807L80 8.45099L85.4634 3.76807H74.5366Z" fill="#000716"/>
<path fill-rule="evenodd" clip-rule="evenodd" d="M110 5.76807V15.7681C110 16.3211 109.552 16.7681 109 16.7681H99C98.448 16.7681 98 16.3211 98 15.7681V1.76807C98 1.21507 98.448 0.768066 99 0.768066H105C105.265 0.768066 105.52 0.873066 105.707 1.06107L109.707 5.06107C109.895 5.24807 110 5.50207 110 5.76807ZM103.586 14.7681L100 11.1821V14.7681H103.586ZM107.586 5.76807H105V3.18207L107.586 5.76807ZM103 5.76807V2.76807H100V8.35407L106.414 14.7681H108V7.76807H105C103.897 7.76807 103 6.87107 103 5.76807Z" fill="#000716"/>
<path fill-rule="evenodd" clip-rule="evenodd" d="M134 16.7681H123C122.448 16.7681 122 16.3204 122 15.7681V1.76807C122 1.21578 122.448 0.768066 123 0.768066H129C129.265 0.768066 129.52 0.873423 129.707 1.06096L134.707 6.06096C134.895 6.2485 135 6.50285 135 6.76807V15.7681C135 16.3204 134.552 16.7681 134 16.7681ZM127 2.76807V8.76807H133V14.7681H124V2.76807H127ZM132.586 6.76807L129 3.18228V6.76807H132.586Z" fill="#000716"/>
<path fill-rule="evenodd" clip-rule="evenodd" d="M145.002 0.768066C144.154 0.768066 143.691 1.75692 144.234 2.40825L149.002 8.13012V14.7681C149.002 15.5114 149.784 15.9949 150.449 15.6625L154.449 13.6625C154.788 13.4931 155.002 13.1468 155.002 12.7681V8.13012L159.77 2.40825C160.313 1.75692 159.85 0.768066 159.002 0.768066H145.002ZM150.633 7.12788L147 2.76807H156.73L153.097 7.12788C152.947 7.3076 152.865 7.53413 152.865 7.76807V12.15L150.865 13.15V7.76807C150.865 7.53413 150.783 7.3076 150.633 7.12788Z" fill="#000716"/>
<path fill-rule="evenodd" clip-rule="evenodd" d="M182 15.7681H170C169.447 15.7681 169 15.3211 169 14.7681V2.76807C169 2.21507 169.447 1.76807 170 1.76807H175.143C175.489 1.76807 175.811 1.94707 175.993 2.24207L177.557 4.76807H182C182.553 4.76807 183 5.21507 183 5.76807V14.7681C183 15.3211 182.553 15.7681 182 15.7681ZM174.586 3.76807H171V13.7681H181V6.76807H177C176.653 6.76807 176.332 6.58907 176.149 6.29407L174.586 3.76807Z" fill="#000716"/>
<path fill-rule="evenodd" clip-rule="evenodd" d="M202.618 3.76807L201.895 2.32107C201.725 1.98207 201.379 1.76807 201 1.76807H194C193.447 1.76807 193 2.21507 193 2.76807V6.76807C192.687 6.76807 192.391 6.91507 192.201 7.16507C192.013 7.41607 191.952 7.74107 192.038 8.04207L194.038 15.0421C194.161 15.4721 194.554 15.7681 195 15.7681H206C207.103 15.7681 208 14.8711 208 13.7681V4.76807C208 4.21507 207.553 3.76807 207 3.76807H202.618ZM206 13.7681H205.76L203.961 7.49307C203.839 7.06407 203.446 6.76807 203 6.76807H195V3.76807H200.382L201.105 5.21507C201.275 5.55407 201.621 5.76807 202 5.76807H206V13.7681ZM194.326 8.76807L195.754 13.7681H203.679L202.246 8.76807H194.326Z" fill="#000716"/>
<path fill-rule="evenodd" clip-rule="evenodd" d="M230.538 2.252C229.63 1.29169 228.333 0.746594 226.984 0.76902C225.911 0.751673 224.85 1.10947 223.99 1.77135C223.156 1.12185 222.091 0.756344 220.99 0.768947C219.667 0.743074 218.365 1.28846 217.435 2.2714C216.497 3.21637 215.973 4.52456 216.001 5.87947C215.97 7.19506 216.494 8.50842 217.451 9.47335L222.695 14.8473C222.97 15.0941 223.206 15.2746 223.455 15.4368L224.001 15.7923L224.547 15.4368C224.796 15.2746 225.033 15.0941 225.255 14.8968L230.557 9.46729C231.509 8.50842 232.032 7.19506 232.001 5.83585C232.026 4.52028 231.498 3.21182 230.538 2.252ZM223.313 3.86483L224.063 4.57476L224.896 3.63724C225.442 3.07102 226.198 2.75636 226.985 2.76876C227.806 2.75564 228.563 3.07409 229.105 3.64641C229.699 4.24165 230.016 5.02672 230.001 5.84076C230.02 6.69744 229.706 7.48545 229.131 8.06441L223.999 13.3235L218.877 8.07047C218.296 7.48545 217.982 6.69744 218.001 5.88191C217.984 5.02535 218.298 4.24044 218.871 3.6633C219.431 3.07213 220.191 2.75351 220.982 2.7687C221.795 2.75986 222.547 3.07797 223.085 3.64648L223.313 3.86483Z" fill="#000716"/>
<path fill-rule="evenodd" clip-rule="evenodd" d="M250.004 11.7681C250.004 11.7771 250.002 11.8006 250 11.8229L250 11.8183L250 11.7681L250 11.7673L250 11.7681L249.995 11.8681L249.997 11.8536L250 11.8229C249.978 13.9384 248.626 15.8141 246.621 16.5011C244.598 17.1942 242.358 16.5243 241.048 14.8344C239.738 13.1445 239.648 10.8086 240.823 9.02248C241.897 7.39078 243.81 6.54779 245.711 6.82173L252.341 1.01576C252.524 0.856086 252.758 0.768066 253 0.768066H255C255.552 0.768066 256 1.21578 256 1.76807V6.76807C256 7.32035 255.552 7.76807 255 7.76807H254V8.76807C254 9.32035 253.552 9.76807 253 9.76807H252V10.7681C252 11.3204 251.552 11.7681 251 11.7681H250.004ZM253.376 2.76807L246.659 8.65038C246.41 8.86811 246.07 8.94894 245.75 8.86631C244.508 8.54558 243.199 9.05022 242.494 10.1219C241.789 11.1936 241.843 12.5951 242.629 13.6091C243.415 14.623 244.759 15.0249 245.972 14.6091C247.186 14.1933 248.001 13.0517 248 11.7688L248.005 11.6681C248.032 11.4021 248.032 11.1341 248.005 10.8681C247.946 10.2792 248.408 9.76807 249 9.76807H250V8.76807C250 8.21578 250.448 7.76807 251 7.76807H252V6.76807C252 6.21578 252.448 5.76807 253 5.76807H254V2.76807H253.376ZM246 10.7681H244V12.7681H246V10.7681Z" fill="#000716"/>
<path fill-rule="evenodd" clip-rule="evenodd" d="M269 6.76807C269 5.11121 270.343 3.76807 272 3.76807C273.657 3.76807 275 5.11121 275 6.76807H269ZM278 6.76807H277C277 4.00664 274.761 1.76807 272 1.76807C269.239 1.76807 267 4.00664 267 6.76807H266C265.448 6.76807 265 7.21578 265 7.76807V14.7681C265 15.3204 265.448 15.7681 266 15.7681H278C278.552 15.7681 279 15.3204 279 14.7681V7.76807C279 7.21578 278.552 6.76807 278 6.76807ZM267 13.7681V8.76807H277V13.7681H267Z" fill="#000716"/>
<path fill-rule="evenodd" clip-rule="evenodd" d="M295 13.7681C291.686 13.7681 289 11.0818 289 7.76807C289 4.45436 291.686 1.76807 295 1.76807C298.314 1.76807 301 4.45436 301 7.76807C301 9.0639 300.589 10.2638 299.891 11.2446L303.707 15.061L302.293 16.4752L298.477 12.6588C297.496 13.3573 296.296 13.7681 295 13.7681ZM295 11.7681C297.209 11.7681 299 9.97721 299 7.76807C299 5.55893 297.209 3.76807 295 3.76807C292.791 3.76807 291 5.55893 291 7.76807C291 9.97721 292.791 11.7681 295 11.7681Z" fill="#000716"/>
<path fill-rule="evenodd" clip-rule="evenodd" d="M324 7.76807C325.657 7.76807 327 6.42492 327 4.76807C327 3.11121 325.657 1.76807 324 1.76807C322.343 1.76807 321 3.11121 321 4.76807C321 4.9193 321.011 5.06793 321.033 5.21315L319.021 6.55063C318.488 6.0645 317.778 5.76807 317 5.76807C315.343 5.76807 314 7.11121 314 8.76807C314 10.4249 315.343 11.7681 317 11.7681C317.778 11.7681 318.488 11.4716 319.021 10.9855L321.033 12.323C321.011 12.4682 321 12.6168 321 12.7681C321 14.4249 322.343 15.7681 324 15.7681C325.657 15.7681 327 14.4249 327 12.7681C327 11.1112 325.657 9.76807 324 9.76807C323.222 9.76807 322.513 10.0645 321.979 10.5506L319.967 9.21315C319.989 9.06793 320 8.9193 320 8.76807C320 8.61683 319.989 8.46821 319.967 8.32298L321.979 6.98551C322.513 7.47164 323.222 7.76807 324 7.76807ZM323 4.76807C323 5.32035 323.448 5.76807 324 5.76807C324.552 5.76807 325 5.32035 325 4.76807C325 4.21578 324.552 3.76807 324 3.76807C323.448 3.76807 323 4.21578 323 4.76807ZM316 8.76807C316 9.32035 316.448 9.76807 317 9.76807C317.552 9.76807 318 9.32035 318 8.76807C318 8.21578 317.552 7.76807 317 7.76807C316.448 7.76807 316 8.21578 316 8.76807ZM323 12.7681C323 13.3204 323.448 13.7681 324 13.7681C324.552 13.7681 325 13.3204 325 12.7681C325 12.2158 324.552 11.7681 324 11.7681C323.448 11.7681 323 12.2158 323 12.7681Z" fill="#000716"/>
<path fill-rule="evenodd" clip-rule="evenodd" d="M343.37 1.80831C345.862 1.49163 348.202 3.07349 348.838 5.50416L346.902 6.00987C346.521 4.55147 345.117 3.60235 343.622 3.79236C342.126 3.98237 341.004 5.25249 341 6.75701V7.75701H350C350.552 7.75701 351 8.20473 351 8.75701V15.757C351 16.3093 350.552 16.757 350 16.757H338C337.448 16.757 337 16.3093 337 15.757V8.75701C337 8.20473 337.448 7.75701 338 7.75701H339L339 6.75416C339.007 4.24186 340.877 2.12499 343.37 1.80831ZM339 9.75701V14.757H349V9.75701H339Z" fill="#000716"/>
</svg>
